<svg width="34" height="34" viewBox="0 0 34 34" fill="none" xmlns="http://www.w3.org/2000/svg">
<path d="M32 5.33333L28.6667 17H9.29452M30.3333 23.6667H10.3333L7 2H2M23.6667 6.16667H19.5M19.5 6.16667H15.3333M19.5 6.16667V10.3333M19.5 6.16667V2M12 30.3333C12 31.2538 11.2538 32 10.3333 32C9.41287 32 8.66667 31.2538 8.66667 30.3333C8.66667 29.4128 9.41287 28.6667 10.3333 28.6667C11.2538 28.6667 12 29.4128 12 30.3333ZM30.3333 30.3333C30.3333 31.2538 29.5872 32 28.6667 32C27.7462 32 27 31.2538 27 30.3333C27 29.4128 27.7462 28.6667 28.6667 28.6667C29.5872 28.6667 30.3333 29.4128 30.3333 30.3333Z" stroke="white" stroke-width="4" stroke-linecap="round" stroke-linejoin="round"/>
</svg>
