<svg width="17" height="17" viewBox="0 0 17 17" fill="none" xmlns="http://www.w3.org/2000/svg">
<path d="M6.36484 3.5563C7.31482 1.85211 7.7898 1.00001 8.49998 1.00001C9.21015 1.00001 9.68513 1.8521 10.6351 3.55629L10.8809 3.99718C11.1509 4.48146 11.2858 4.72361 11.4963 4.88337C11.7068 5.04314 11.9688 5.10244 12.4931 5.22105L12.9704 5.32904C14.8151 5.74643 15.7375 5.95513 15.9569 6.66081C16.1764 7.36647 15.5476 8.10184 14.2899 9.57244L13.9646 9.95292C13.6072 10.3708 13.4285 10.5798 13.3481 10.8383C13.2677 11.0968 13.2947 11.3756 13.3487 11.9332L13.3979 12.4408C13.5881 14.403 13.6832 15.3841 13.1087 15.8202C12.5341 16.2563 11.6705 15.8587 9.9432 15.0634L9.49635 14.8576C9.00555 14.6317 8.76015 14.5186 8.49998 14.5186C8.2398 14.5186 7.9944 14.6317 7.5036 14.8576L7.05675 15.0634C5.32948 15.8587 4.46586 16.2563 3.89133 15.8202C3.31681 15.3841 3.41188 14.403 3.60202 12.4408L3.6512 11.9332C3.70524 11.3756 3.73226 11.0968 3.65186 10.8383C3.57148 10.5798 3.39279 10.3708 3.03541 9.95292L2.71004 9.57244C1.4524 8.10184 0.823581 7.36647 1.04303 6.66081C1.26248 5.95513 2.18486 5.74643 4.02963 5.32904L4.50689 5.22105C5.03111 5.10244 5.29322 5.04314 5.50368 4.88337C5.71414 4.72361 5.84912 4.48147 6.11908 3.99718L6.36484 3.5563Z" stroke="#FFC700" stroke-width="2"/>
<path d="M6.9917 2H8.4917V14L4.4917 15.5L2.66699 9L1.66699 7L4.9917 5.5L6.9917 2Z" fill="#FFC700"/>
</svg>
