<svg width="24" height="25" viewBox="0 0 24 25" fill="none" xmlns="http://www.w3.org/2000/svg">
<path id="Vector" fill-rule="evenodd" clip-rule="evenodd" d="M0 9.12162V15.8783C0 19.0636 8.51495e-08 20.6561 1.00224 21.6457C1.91276 22.5446 3.32747 22.6268 5.99786 22.6344C5.85675 21.6978 5.82726 20.5789 5.81985 19.2624C5.81669 18.7026 6.27374 18.2464 6.84068 18.2432C7.40761 18.2401 7.86978 18.6914 7.87293 19.2511C7.88127 20.7288 7.92013 21.7762 8.06803 22.5711C8.21053 23.3371 8.43936 23.7804 8.77258 24.1094C9.15139 24.4835 9.6832 24.7274 10.6876 24.8606C11.7215 24.9979 13.0918 25 15.0565 25H16.4253C18.3899 25 19.7601 24.9979 20.794 24.8606C21.7985 24.7274 22.3303 24.4835 22.709 24.1094C23.0879 23.7354 23.3349 23.2103 23.4699 22.2188C23.6089 21.1981 23.6111 19.8451 23.6111 17.9054V7.0946C23.6111 5.15485 23.6089 3.80199 23.4699 2.78125C23.3349 1.78965 23.0879 1.26456 22.709 0.890556C22.3303 0.516556 21.7985 0.272708 20.794 0.139389C19.7601 0.00215266 18.3899 0 16.4253 0H15.0565C13.0918 0 11.7215 0.00215266 10.6876 0.139389C9.6832 0.272708 9.15139 0.516556 8.77258 0.890556C8.43936 1.21954 8.21053 1.66289 8.06803 2.42885C7.92013 3.22378 7.88127 4.27118 7.87293 5.74889C7.86978 6.30863 7.40761 6.75986 6.84068 6.75674C6.27374 6.75363 5.81669 6.29735 5.81985 5.7376C5.82726 4.42114 5.85675 3.30219 5.99786 2.36562C3.32747 2.37315 1.91276 2.4554 1.00224 3.35438C8.51495e-08 4.34387 0 5.93646 0 9.12162ZM3.38035 13.2167C2.97944 12.8208 2.97944 12.1792 3.38035 11.7833L6.11783 9.08064C6.51872 8.68483 7.16871 8.68483 7.5696 9.08064C7.9705 9.47644 7.9705 10.1182 7.5696 10.514L6.58456 11.4865H16.4249C16.9918 11.4865 17.4515 11.9403 17.4515 12.5C17.4515 13.0597 16.9918 13.5135 16.4249 13.5135H6.58456L7.5696 14.486C7.9705 14.8818 7.9705 15.5236 7.5696 15.9193C7.16871 16.3151 6.51872 16.3151 6.11783 15.9193L3.38035 13.2167Z" fill="#0906AA"/>
</svg>
