<svg width="40" height="40" viewBox="0 0 40 40" fill="none" xmlns="http://www.w3.org/2000/svg">
<path d="M30 10L28.6652 30.0215C28.5483 31.775 28.4898 32.6518 28.1112 33.3167C27.7777 33.902 27.2747 34.3725 26.6685 34.6663C25.98 35 25.1012 35 23.3437 35H16.6563C14.8988 35 14.02 35 13.3315 34.6663C12.7253 34.3725 12.2223 33.902 11.8889 33.3167C11.5101 32.6518 11.4517 31.775 11.3348 30.0215L10 10M6.66667 10H33.3333M26.6667 10L26.2157 8.64678C25.7785 7.33542 25.5598 6.67973 25.1545 6.19497C24.7965 5.76688 24.3368 5.43553 23.8175 5.2313C23.2293 5 22.5383 5 21.156 5H18.844C17.4617 5 16.7707 5 16.1825 5.2313C15.6632 5.43553 15.2035 5.76688 14.8455 6.19497C14.4401 6.67973 14.2215 7.33542 13.7844 8.64678L13.3333 10M23.3333 16.6667V28.3333M16.6667 16.6667V28.3333" stroke="#FF1E1E" stroke-width="4" stroke-linecap="round" stroke-linejoin="round"/>
</svg>
